# xmcd
#
# Track frame offsets:
# 150
# 16452
# 34529
# 48204
# 70039
# 89176
# 103754
# 120661
# 135171
# 150414
# 166870
#
# Disc length: 2452 seconds
#
#
# Revision: 0
# Processed by: cddbd v1.5.2PL0 Copyright (c) Steve Scherf et al.
# Submitted via: FreeRIP 2.96 
#
DISCID=8009920b
DTITLE=Colleen Hewett - Black and White
DYEAR=2015
DGENRE=Blues
TTITLE0=Blues Is My Business
TTITLE1=Rockin' Chair
TTITLE2=Daddy Said
TTITLE3=I Sing the Blues
TTITLE4=Shut Up and Let Me Breathe
TTITLE5=I'm Walking
TTITLE6=Starlight
TTITLE7=Shut Your Mouth
TTITLE8=Takin' the Good with the Bad
TTITLE9=The Key
TTITLE10=Headin' Down the Highway
EXTD=
EXTT0=
EXTT1=
EXTT2=
EXTT3=
EXTT4=
EXTT5=
EXTT6=
EXTT7=
EXTT8=
EXTT9=
EXTT10=
PLAYORDER=
